# xmcd CD database file
#
# Track frame offsets:
#	150
#	32987
#	64227
#	93937
#	126675
#	154054
#	175065
#	207405
#
# Disc length: 2984 seconds
#
# Revision: 0
# Processed by: cddbd v1.5.2PL0 Copyright (c) Steve Scherf et al.
# Submitted via: CDex 1.70beta2
#
DISCID=720ba608
DTITLE=Jeroen Pek Band - In My Hammock
DYEAR=1998
DGENRE=Jazz
TTITLE0=Tribes
TTITLE1=Wing Dance
TTITLE2=Offsprings
TTITLE3=In My Hammock
TTITLE4=Bilingual Flumspeak
TTITLE5=Languid Lion After Lunch
TTITLE6=Sunrise Song
TTITLE7=Blues For Jorden
EXTD=YEAR: 1998
EXTT0=
EXTT1=
EXTT2=
EXTT3=
EXTT4=
EXTT5=
EXTT6=
EXTT7=
PLAYORDER=
